<?xml version="1.0" standalone="no"?>
<!DOCTYPE svg PUBLIC "-//W3C//DTD SVG 20010904//EN"
 "http://www.w3.org/TR/2001/REC-SVG-20010904/DTD/svg10.dtd">
<svg version="1.0" xmlns="http://www.w3.org/2000/svg"
 width="512.000000pt" height="512.000000pt" viewBox="0 0 512.000000 512.000000"
 preserveAspectRatio="xMidYMid meet">
<metadata>
Created by potrace 1.14, written by Peter Selinger 2001-2017
</metadata>
<g transform="translate(0.000000,512.000000) scale(0.100000,-0.100000)"
fill="#000000" stroke="none">
<path d="M1232 4894 c-342 -49 -647 -270 -799 -579 -17 -33 -38 -81 -48 -107
l-18 -48 -150 0 -150 0 -34 -36 -34 -36 3 -254 3 -254 28 -27 c27 -28 29 -28
183 -33 l155 -5 33 -83 c38 -94 91 -185 149 -255 l39 -47 39 34 38 35 56 -54
57 -54 -33 -41 c-19 -24 -29 -44 -24 -48 97 -70 173 -112 290 -162 146 -62
401 -82 581 -45 216 45 382 135 542 293 l54 54 -6 -104 c-4 -57 -9 -125 -11
-153 -10 -116 -15 -185 -21 -270 -3 -49 -8 -101 -9 -115 -2 -14 -4 -32 -4 -40
-1 -8 -11 -15 -23 -16 -50 -1 -208 -39 -257 -60 -161 -71 -252 -143 -310 -245
-90 -160 -71 -364 52 -542 10 -14 7 -21 -19 -45 -35 -30 -57 -69 -84 -147 -49
-142 -174 -266 -317 -314 -158 -53 -378 -9 -558 112 -49 32 -149 139 -187 198
-47 73 -70 91 -113 91 -79 0 -115 -52 -109 -160 20 -408 278 -782 671 -976
203 -100 383 -140 628 -140 424 1 749 112 976 334 l69 67 68 -67 c167 -164
373 -260 677 -314 190 -34 499 -24 665 20 119 32 337 126 382 163 7 6 42 32
77 57 87 63 152 125 220 209 81 101 93 119 144 225 74 150 110 297 111 452 1
63 -1 70 -30 99 -24 23 -40 31 -68 31 -46 0 -74 -18 -111 -73 -82 -123 -177
-210 -293 -269 -34 -17 -62 -36 -62 -41 0 -5 7 -26 15 -46 9 -20 12 -40 8 -44
-11 -9 -97 -35 -155 -47 -44 -9 -48 -8 -49 9 -1 11 -3 24 -4 29 -1 6 -3 21 -4
35 -1 23 -4 24 -70 24 -81 0 -135 13 -211 51 -104 53 -199 157 -244 270 -10
25 -25 62 -34 84 -9 21 -31 54 -49 72 -18 19 -33 36 -33 38 0 2 18 34 40 70
153 252 68 546 -197 684 -87 45 -202 85 -276 96 -63 10 -89 15 -93 18 -4 5
-12 59 -13 90 -1 26 -2 27 -54 22 l-53 -5 -3 43 c-2 24 -4 72 -5 108 -1 70 -4
67 63 69 l34 1 -7 93 c-3 50 -9 131 -12 179 l-7 86 74 -69 c482 -455 1249
-371 1615 177 34 50 78 131 99 182 l37 91 154 3 c153 3 154 3 181 31 l28 27 0
260 0 260 -28 27 c-27 28 -29 28 -183 33 l-156 5 -23 64 c-13 35 -28 68 -33
73 -6 6 -25 2 -52 -12 -35 -18 -45 -19 -51 -8 -5 7 -19 31 -32 53 l-23 40 44
31 43 31 -47 59 c-102 128 -257 250 -397 313 -277 125 -600 128 -867 8 -25
-11 -47 -21 -50 -21 -24 -6 -166 -102 -227 -155 -88 -76 -199 -217 -244 -308
-17 -35 -36 -63 -42 -64 -42 -3 -364 -4 -374 -1 -7 2 -24 27 -38 55 -29 57
-40 77 -70 122 -35 53 -49 68 -130 150 -235 236 -570 347 -903 299z"/>
</g>
</svg>
